# xmcd
#
# Track frame offsets: 
#        150
#        13540
#        32228
#        113650
#        125003
#        180012
#
# Disc length: 2941 seconds
#
# Revision: 0
# Processed by: cddbd v1.5.2PL0 Copyright (c) Steve Scherf et al.
# Submitted via: ExactAudioCopy v0.95b3
#
DISCID=3f0b7b06
DTITLE=Jimi Hendrix  - Rockin' The USA Vol.2 -  Disc 2
DYEAR=1900
DGENRE=
TTITLE0=Star Spangled Banner
TTITLE1=Purple Haze
TTITLE2=Voodoo Child (Slight Return)
TTITLE3=Intro
TTITLE4=Who Knows
TTITLE5=Earth Blues
EXTD=
EXTT0=
EXTT1=
EXTT2=
EXTT3=
EXTT4=
EXTT5=
PLAYORDER=
